<svg xmlns="http://www.w3.org/2000/svg" viewBox="0 0 156.2 45.54"><title>LOGO_CUSTOM_ELEMENTS_SMALL</title><g id="Laag_2" data-name="Laag 2"><g id="Laag_1-2" data-name="Laag 1"><path d="M39.15,24.9a9.37,9.37,0,0,0,8.23-4.82l-4.23-2a5,5,0,0,1-4,2.46,4.77,4.77,0,0,1-4.77-5.07,4.77,4.77,0,0,1,4.77-5.07,5,5,0,0,1,4,2.46l4.23-2.05A9.47,9.47,0,1,0,39.15,24.9Z"/><path d="M58.57,24.9a7,7,0,0,0,4.92-2.13V24.6h4.7V6.24h-4.7v10.1a3.9,3.9,0,0,1-3.85,4.22c-2.24,0-3.82-1.72-3.82-4.19V6.24H51V16.49C51,21.26,54.06,24.9,58.57,24.9Z"/><path d="M80.31,20.82A8.33,8.33,0,0,1,75,18.58l-3,2.68A11.27,11.27,0,0,0,80.2,24.9c4.81,0,7.45-2.32,7.45-5.59,0-6.09-11-5.84-11-7.78,0-.92,1.17-1.51,2.93-1.51a8.45,8.45,0,0,1,5.36,2.24l3-2.68A11.31,11.31,0,0,0,79.68,6c-4.81,0-7.41,2.31-7.41,5.58,0,6.1,11,5.83,11,7.78C83.24,20.23,82.11,20.82,80.31,20.82Z"/><path d="M98.85,20.52c-1,0-1.91-.92-1.91-2.42V10.46h4.33V6.24H96.94V0l-4.7.11V6.24H90v4.22h2.24v9.08c0,3.81,2.43,5.36,5.58,5.36A7.44,7.44,0,0,0,103,22.69l-2-3.75A2.09,2.09,0,0,1,98.85,20.52Z"/><path d="M113.76,6a9.48,9.48,0,1,0,9.47,9.47A9.5,9.5,0,0,0,113.76,6Zm.18,14.54a4.75,4.75,0,0,1-4.77-5.07,4.78,4.78,0,1,1,9.54,0A4.77,4.77,0,0,1,113.94,20.49Z"/><path d="M148.67,6a7.81,7.81,0,0,0-6.57,3,7.12,7.12,0,0,0-10.87-.84V6.24h-4.7V21.67l4.69-1V14.5a3.91,3.91,0,0,1,3.86-4.22,3.87,3.87,0,0,1,3.85,4.18V24.6h4.78V14.5a3.9,3.9,0,0,1,3.85-4.22c2.24,0,3.82,1.72,3.82,4.18V24.6h4.81V14.35C156.2,9.58,153.15,6,148.67,6Z"/><path d="M9.47,41.06A4.41,4.41,0,0,1,5.4,38.42L18.91,36a2.56,2.56,0,0,0,0-.48A9.46,9.46,0,0,0,0,35.85a9,9,0,0,0,.66,3.41,9.62,9.62,0,0,0,8.81,6.06,10.48,10.48,0,0,0,9.47-6.09L15,38A6.47,6.47,0,0,1,9.47,41.06ZM4.85,34.27a4.63,4.63,0,0,1,4-3.71,4.89,4.89,0,0,1,4.7,2.72L4.74,34.86Z"/><rect x="22.11" y="17.9" width="4.7" height="27.35"/><path d="M39,41.06a4.41,4.41,0,0,1-4.07-2.64L48.43,36a2.56,2.56,0,0,0,0-.48,9.46,9.46,0,0,0-18.91.37,9,9,0,0,0,.66,3.41A9.62,9.62,0,0,0,39,45.32a10.48,10.48,0,0,0,9.47-6.09L44.54,38A6.47,6.47,0,0,1,39,41.06Zm-4.62-6.79a4.63,4.63,0,0,1,4-3.71,4.88,4.88,0,0,1,4.69,2.72l-8.84,1.58Z"/><path d="M73.21,26.6a7.81,7.81,0,0,0-6.57,3,7.12,7.12,0,0,0-10.87-.84V26.89h-4.7V45.25h4.7V35.15a3.87,3.87,0,1,1,7.71,0V45.25h4.77V35.15a3.91,3.91,0,0,1,3.86-4.22c2.24,0,3.81,1.73,3.81,4.18V45.25h4.81V35C80.73,30.23,77.69,26.6,73.21,26.6Z"/><path d="M92.89,41.06a4.41,4.41,0,0,1-4.07-2.64L102.33,36a2.56,2.56,0,0,0,0-.48,9.46,9.46,0,0,0-18.91.37,9,9,0,0,0,.66,3.41,9.62,9.62,0,0,0,8.81,6.06,10.48,10.48,0,0,0,9.47-6.09L98.43,38A6.44,6.44,0,0,1,92.89,41.06Zm-4.63-6.79a4.65,4.65,0,0,1,4-3.71A4.89,4.89,0,0,1,97,33.28l-8.85,1.58Z"/><path d="M114.59,26.6a7,7,0,0,0-4.92,2.13V26.89H105V45.25h4.7V35.15a3.9,3.9,0,0,1,3.85-4.22c2.24,0,3.82,1.73,3.82,4.18V45.25h4.81V35C122.15,30.23,119.1,26.6,114.59,26.6Z"/><path d="M133.13,41.17c-1,0-1.91-.92-1.91-2.42V31.11h4.33V26.89h-4.33V23.68l-4.69.92v2.29h-2.24v4.22h2.24v9.07c0,3.82,2.42,5.36,5.58,5.36a7.42,7.42,0,0,0,5.17-2.2l-2-3.75A2.11,2.11,0,0,1,133.13,41.17Z"/><path d="M146.49,30.67a8.45,8.45,0,0,1,5.36,2.24l3-2.68a11.31,11.31,0,0,0-8.23-3.63c-4.8,0-7.41,2.31-7.41,5.58,0,6.09,11,5.84,11,7.78,0,.92-1.14,1.51-2.94,1.51a8.29,8.29,0,0,1-5.32-2.24l-3,2.68a11.28,11.28,0,0,0,8.19,3.63c4.81,0,7.45-2.31,7.45-5.58,0-6.09-11-5.84-11-7.78C143.56,31.26,144.73,30.67,146.49,30.67Z"/></g></g></svg>
