<svg xmlns="http://www.w3.org/2000/svg" viewBox="0 0 420.38 165"><defs><style>.cls-1{fill:none;}</style></defs><title>LOGO_CUSTOM_ELEMENTS</title><g id="Laag_2" data-name="Laag 2"><g id="Laag_1-2" data-name="Laag 1"><path d="M125.31,80.65a20.42,20.42,0,0,0,17.93-10.49L134,65.68c-2.16,3.29-5.44,5.37-8.73,5.37-6,0-10.4-4.64-10.4-11s4.4-11,10.4-11c3.29,0,6.57,2.08,8.73,5.36l9.2-4.48a20.43,20.43,0,0,0-17.93-10.48,20.65,20.65,0,0,0,0,41.29Z"/><path d="M167.64,80.65A15.31,15.31,0,0,0,178.36,76v4H188.6V40H178.36V62c0,5.37-3.52,9.2-8.4,9.2s-8.32-3.75-8.32-9.12V40H151.16V62.33C151.16,72.72,157.8,80.65,167.64,80.65Z"/><path d="M215,71.76c-6.72,0-11.6-4.87-11.6-4.87l-6.48,5.83a24.55,24.55,0,0,0,17.84,7.93c10.48,0,16.24-5,16.24-12.17,0-13.28-24-12.72-24-17,0-2,2.56-3.28,6.4-3.28,6.72,0,11.68,4.88,11.68,4.88l6.48-5.84a24.63,24.63,0,0,0-17.92-7.92c-10.48,0-16.16,5-16.16,12.16,0,13.29,23.92,12.72,23.92,17C221.4,70.49,218.92,71.76,215,71.76Z"/><path d="M255.41,71.12c-2.24,0-4.16-2-4.16-5.27V49.2h9.44V40h-9.44V26.4L241,26.64V40h-4.88v9.2H241V69c0,8.31,5.28,11.68,12.16,11.68a16.25,16.25,0,0,0,11.28-4.8l-4.4-8.17C260.05,69,258.13,71.12,255.41,71.12Z"/><path d="M287.89,39.36A20.65,20.65,0,1,0,308.53,60,20.69,20.69,0,0,0,287.89,39.36Zm.4,31.69c-6.08,0-10.4-4.64-10.4-11s4.32-11,10.4-11,10.4,4.64,10.4,11S294.29,71.05,288.29,71.05Z"/><path d="M364,39.36c-6.56,0-11.44,2.56-14.32,6.48A15.51,15.51,0,0,0,326,44V40H315.73V73.63l10.21-2.23L326,58c0-5.36,3.52-9.2,8.4-9.2s8.4,3.76,8.4,9.12V80h10.41V58c0-5.36,3.51-9.2,8.39-9.2s8.32,3.76,8.32,9.12V80h10.49V57.68C380.38,47.28,373.73,39.36,364,39.36Z"/><path d="M60.64,115.88a9.61,9.61,0,0,1-8.88-5.76l29.44-5.36a4.51,4.51,0,0,0,0-1,20.61,20.61,0,0,0-41.2.8A19.56,19.56,0,0,0,41.44,112a21,21,0,0,0,19.2,13.2c13.92,0,19.92-11.44,20.64-13.28l-8.56-2.72C72.16,110.84,67.52,115.88,60.64,115.88Zm-10.08-14.8A10.09,10.09,0,0,1,59.36,93,10.63,10.63,0,0,1,69.6,98.92l-19.28,3.44Z"/><rect x="88.17" y="65.4" width="10.24" height="59.6"/><path d="M125,115.88a9.61,9.61,0,0,1-8.88-5.76l29.44-5.36a4.51,4.51,0,0,0,0-1,20.61,20.61,0,0,0-41.2.8,19.56,19.56,0,0,0,1.44,7.44,21,21,0,0,0,19.2,13.2c13.92,0,19.92-11.44,20.64-13.28l-8.56-2.72C136.49,110.84,131.85,115.88,125,115.88Zm-10.08-14.8a10.09,10.09,0,0,1,8.8-8.08,10.63,10.63,0,0,1,10.24,5.92l-19.28,3.44Z"/><path d="M199.53,84.36c-6.56,0-11.44,2.56-14.32,6.48A15.51,15.51,0,0,0,161.53,89V85H151.29v40h10.24V103c0-5.36,3.52-9.2,8.4-9.2s8.4,3.76,8.4,9.12V125h10.4V103c0-5.36,3.52-9.2,8.4-9.2s8.32,3.76,8.32,9.12V125h10.48V102.68C215.93,92.28,209.29,84.36,199.53,84.36Z"/><path d="M242.42,115.88a9.61,9.61,0,0,1-8.88-5.76L263,104.76a4.51,4.51,0,0,0,0-1,20.61,20.61,0,0,0-41.2.8,19.56,19.56,0,0,0,1.44,7.44,21,21,0,0,0,19.2,13.2c13.92,0,19.92-11.44,20.64-13.28l-8.56-2.72C253.94,110.84,249.3,115.88,242.42,115.88Zm-10.08-14.8a10.09,10.09,0,0,1,8.8-8.08,10.63,10.63,0,0,1,10.24,5.92l-19.28,3.44Z"/><path d="M289.7,84.36A15.31,15.31,0,0,0,279,89V85H268.74v40H279V103c0-5.36,3.52-9.2,8.4-9.2s8.32,3.76,8.32,9.12V125h10.48V102.68C306.18,92.28,299.54,84.36,289.7,84.36Z"/><path d="M330.1,116.12c-2.24,0-4.16-2-4.16-5.28V94.2h9.45V85h-9.45V78l-10.21,2,0,5h-4.88v9.2h4.88V114c0,8.32,5.28,11.68,12.16,11.68a16.22,16.22,0,0,0,11.28-4.8l-4.39-8.16C334.75,114,332.82,116.12,330.1,116.12Z"/><path d="M359.23,93.24c6.72,0,11.68,4.88,11.68,4.88l6.48-5.84a24.63,24.63,0,0,0-17.92-7.92c-10.48,0-16.16,5-16.16,12.16,0,13.28,23.92,12.72,23.92,17,0,2-2.48,3.28-6.4,3.28-6.72,0-11.6-4.88-11.6-4.88l-6.48,5.84a24.56,24.56,0,0,0,17.84,7.92c10.48,0,16.24-5,16.24-12.16,0-13.28-24-12.72-24-17C352.83,94.52,355.39,93.24,359.23,93.24Z"/><rect class="cls-1" width="420.38" height="165"/></g></g></svg>