<svg xmlns="http://www.w3.org/2000/svg" viewBox="0 0 193.08 75.78"><defs><style>.cls-1{fill:none;}</style></defs><title>LOGO_CUSTOM_ELEMENTS_MARGIN</title><g id="Laag_2" data-name="Laag 2"><g id="Laag_1-2" data-name="Laag 1"><path d="M57.55,37a9.38,9.38,0,0,0,8.24-4.82l-4.23-2a5,5,0,0,1-4,2.46,4.77,4.77,0,0,1-4.77-5.07,4.77,4.77,0,0,1,4.77-5.07,5,5,0,0,1,4,2.46l4.23-2.06A9.48,9.48,0,1,0,57.55,37Z"/><path d="M77,37a7,7,0,0,0,4.92-2.13v1.84h4.7V18.37h-4.7V28.48a3.91,3.91,0,0,1-3.86,4.22c-2.24,0-3.82-1.72-3.82-4.19V18.37H69.43V28.63C69.43,33.4,72.48,37,77,37Z"/><path d="M98.75,33a8.33,8.33,0,0,1-5.33-2.24l-3,2.68A11.3,11.3,0,0,0,98.64,37c4.81,0,7.46-2.31,7.46-5.59,0-6.1-11-5.84-11-7.79,0-.92,1.18-1.5,2.94-1.5a8.5,8.5,0,0,1,5.37,2.24l3-2.68a11.3,11.3,0,0,0-8.23-3.64c-4.81,0-7.42,2.31-7.42,5.58,0,6.11,11,5.85,11,7.79C101.69,32.38,100.55,33,98.75,33Z"/><path d="M117.31,32.67c-1,0-1.91-.92-1.91-2.43V22.6h4.33V18.37H115.4V12.13l-4.71.11v6.13h-2.24V22.6h2.24v9.08c0,3.81,2.43,5.36,5.59,5.36a7.46,7.46,0,0,0,5.18-2.2l-2-3.75A2.1,2.1,0,0,1,117.31,32.67Z"/><path d="M132.23,18.08a9.48,9.48,0,1,0,9.48,9.48A9.5,9.5,0,0,0,132.23,18.08Zm.18,14.55a4.76,4.76,0,0,1-4.78-5.07,4.79,4.79,0,1,1,9.56,0A4.77,4.77,0,0,1,132.41,32.63Z"/><path d="M167.17,18.08a7.84,7.84,0,0,0-6.58,3,7.12,7.12,0,0,0-10.87-.84V18.37H145V33.82l4.69-1,0-6.15a3.87,3.87,0,1,1,7.71,0V36.75h4.78V26.64a3.92,3.92,0,0,1,3.86-4.23c2.24,0,3.82,1.73,3.82,4.19V36.75h4.82V26.49C174.71,21.72,171.65,18.08,167.17,18.08Z"/><path d="M27.85,53.22a4.42,4.42,0,0,1-4.08-2.64l13.52-2.46a1.92,1.92,0,0,0,0-.48A9.46,9.46,0,0,0,18.37,48,9,9,0,0,0,19,51.42a9.65,9.65,0,0,0,8.82,6.07,10.51,10.51,0,0,0,9.48-6.1L33.4,50.14A6.47,6.47,0,0,1,27.85,53.22Zm-4.63-6.79a4.65,4.65,0,0,1,4-3.72A4.9,4.9,0,0,1,32,45.43L23.11,47Z"/><rect x="40.5" y="30.04" width="4.7" height="27.37"/><path d="M57.4,53.22a4.42,4.42,0,0,1-4.08-2.64l13.52-2.46a1.92,1.92,0,0,0,0-.48A9.46,9.46,0,0,0,47.92,48a9,9,0,0,0,.66,3.41,9.63,9.63,0,0,0,8.82,6.07,10.51,10.51,0,0,0,9.48-6.1L63,50.14A6.47,6.47,0,0,1,57.4,53.22Zm-4.63-6.79a4.63,4.63,0,0,1,4-3.72,4.89,4.89,0,0,1,4.7,2.72L52.66,47Z"/><path d="M91.64,38.75a7.81,7.81,0,0,0-6.57,3,7.13,7.13,0,0,0-10.88-.84V39h-4.7V57.41h4.7V47.31a3.87,3.87,0,1,1,7.72,0V57.41h4.77V47.31a3.92,3.92,0,0,1,3.86-4.23c2.24,0,3.82,1.73,3.82,4.19V57.41h4.82V47.16C99.18,42.38,96.13,38.75,91.64,38.75Z"/><path d="M111.34,53.22a4.43,4.43,0,0,1-4.08-2.64l13.53-2.46a2.56,2.56,0,0,0,0-.48,9.47,9.47,0,0,0-18.93.37,9,9,0,0,0,.66,3.41,9.65,9.65,0,0,0,8.82,6.07,10.49,10.49,0,0,0,9.48-6.1l-3.93-1.25A6.47,6.47,0,0,1,111.34,53.22Zm-4.63-6.79a4.65,4.65,0,0,1,4-3.72,4.89,4.89,0,0,1,4.71,2.72L106.6,47Z"/><path d="M133.06,38.75a7,7,0,0,0-4.93,2.13V39h-4.7V57.41h4.7V47.31A3.92,3.92,0,0,1,132,43.08c2.24,0,3.82,1.73,3.82,4.19V57.41h4.82V47.16C140.63,42.38,137.58,38.75,133.06,38.75Z"/><path d="M151.61,53.33c-1,0-1.91-.92-1.91-2.42V43.27H154V39H149.7V35.83l-4.69.92V39h-2.24v4.23H145v9.07c0,3.82,2.42,5.37,5.58,5.37a7.45,7.45,0,0,0,5.19-2.21l-2-3.75A2.11,2.11,0,0,1,151.61,53.33Z"/><path d="M165,42.82a8.48,8.48,0,0,1,5.37,2.25l3-2.69a11.31,11.31,0,0,0-8.23-3.63c-4.81,0-7.42,2.31-7.42,5.58,0,6.1,11,5.84,11,7.79,0,.92-1.14,1.51-2.94,1.51a8.33,8.33,0,0,1-5.33-2.24l-3,2.68a11.3,11.3,0,0,0,8.2,3.64c4.81,0,7.46-2.32,7.46-5.59,0-6.1-11-5.84-11-7.79C162.05,43.41,163.23,42.82,165,42.82Z"/><rect class="cls-1" width="193.08" height="75.78"/></g></g></svg>