<svg xmlns="http://www.w3.org/2000/svg" viewBox="0 0 115.14 115.14"><defs><style>.cls-1{fill:#fff;}</style></defs><title>favicon_2</title><g id="Laag_2" data-name="Laag 2"><g id="Laag_1-2" data-name="Laag 1"><rect class="cls-1" width="115.14" height="115.14" rx="20.97"/><path d="M36.44,78.22A20.42,20.42,0,0,0,54.37,67.73l-9.2-4.48c-2.16,3.29-5.44,5.37-8.73,5.37-6,0-10.4-4.64-10.4-11.05s4.4-11,10.4-11c3.29,0,6.57,2.08,8.73,5.36l9.2-4.48A20.43,20.43,0,0,0,36.44,36.93a20.65,20.65,0,0,0,0,41.29Z"/><path d="M78.7,68.93a9.61,9.61,0,0,1-8.88-5.76l29.44-5.36a4.51,4.51,0,0,0,0-1,20.61,20.61,0,0,0-41.2.8A19.56,19.56,0,0,0,59.5,65a21,21,0,0,0,19.2,13.2c13.92,0,19.92-11.44,20.64-13.28l-8.56-2.72C90.22,63.89,85.58,68.93,78.7,68.93ZM68.62,54.13a10.09,10.09,0,0,1,8.8-8.08A10.63,10.63,0,0,1,87.66,52L68.38,55.41Z"/></g></g></svg>