<svg xmlns="http://www.w3.org/2000/svg" viewBox="0 0 340.38 99.24"><title>LOGO_CUSTOM_ELEMENTS_NO_MARGIN</title><g id="Laag_2" data-name="Laag 2"><g id="Laag_1-2" data-name="Laag 1"><path d="M85.31,54.25a20.42,20.42,0,0,0,17.93-10.49L94,39.28c-2.16,3.29-5.44,5.37-8.73,5.37-6,0-10.4-4.64-10.4-11s4.4-11,10.4-11c3.29,0,6.57,2.08,8.73,5.36l9.2-4.48A20.43,20.43,0,0,0,85.31,13a20.65,20.65,0,0,0,0,41.29Z"/><path d="M127.64,54.25a15.31,15.31,0,0,0,10.72-4.64v4H148.6v-40H138.36v22c0,5.37-3.52,9.2-8.4,9.2s-8.32-3.75-8.32-9.12V13.6H111.16V35.93C111.16,46.32,117.8,54.25,127.64,54.25Z"/><path d="M175,45.36c-6.72,0-11.6-4.87-11.6-4.87l-6.48,5.83a24.55,24.55,0,0,0,17.84,7.93c10.48,0,16.24-5,16.24-12.17,0-13.28-24-12.72-24-17,0-2,2.56-3.28,6.4-3.28,6.72,0,11.68,4.88,11.68,4.88l6.48-5.84A24.63,24.63,0,0,0,173.64,13c-10.48,0-16.16,5-16.16,12.16,0,13.29,23.92,12.72,23.92,17C181.4,44.09,178.92,45.36,175,45.36Z"/><path d="M215.41,44.72c-2.24,0-4.16-2-4.16-5.27V22.8h9.44V13.6h-9.44V0L201,.24V13.6h-4.88v9.2H201V42.57c0,8.31,5.28,11.68,12.16,11.68a16.25,16.25,0,0,0,11.28-4.8l-4.4-8.17C220.05,42.57,218.13,44.72,215.41,44.72Z"/><path d="M247.89,13A20.65,20.65,0,1,0,268.53,33.6,20.69,20.69,0,0,0,247.89,13Zm.4,31.69c-6.08,0-10.4-4.64-10.4-11s4.32-11,10.4-11,10.4,4.64,10.4,11S254.29,44.65,248.29,44.65Z"/><path d="M324,13c-6.56,0-11.44,2.56-14.32,6.48A15.51,15.51,0,0,0,286,17.6v-4H275.73V47.23L285.94,45l0-13.4c0-5.36,3.52-9.2,8.4-9.2s8.4,3.76,8.4,9.12V53.61h10.41v-22c0-5.36,3.51-9.2,8.39-9.2s8.32,3.76,8.32,9.12V53.61h10.49V31.28C340.38,20.88,333.73,13,324,13Z"/><path d="M20.64,89.48a9.61,9.61,0,0,1-8.88-5.76L41.2,78.36a4.51,4.51,0,0,0,0-1,20.61,20.61,0,0,0-41.2.8,19.56,19.56,0,0,0,1.44,7.44,21,21,0,0,0,19.2,13.2c13.92,0,19.92-11.44,20.64-13.28l-8.56-2.72C32.16,84.44,27.52,89.48,20.64,89.48ZM10.56,74.68a10.09,10.09,0,0,1,8.8-8.08A10.63,10.63,0,0,1,29.6,72.52L10.32,76Z"/><rect x="48.17" y="39" width="10.24" height="59.6"/><path d="M85,89.48a9.61,9.61,0,0,1-8.88-5.76l29.44-5.36a4.51,4.51,0,0,0,0-1,20.61,20.61,0,0,0-41.2.8,19.56,19.56,0,0,0,1.44,7.44A21,21,0,0,0,85,98.76c13.92,0,19.92-11.44,20.64-13.28l-8.56-2.72C96.49,84.44,91.85,89.48,85,89.48ZM74.89,74.68a10.09,10.09,0,0,1,8.8-8.08,10.63,10.63,0,0,1,10.24,5.92L74.65,76Z"/><path d="M159.53,58c-6.56,0-11.44,2.56-14.32,6.48a15.51,15.51,0,0,0-23.68-1.84v-4H111.29v40h10.24v-22c0-5.36,3.52-9.2,8.4-9.2s8.4,3.76,8.4,9.12V98.6h10.4v-22c0-5.36,3.52-9.2,8.4-9.2s8.32,3.76,8.32,9.12V98.6h10.48V76.28C175.93,65.88,169.29,58,159.53,58Z"/><path d="M202.42,89.48a9.61,9.61,0,0,1-8.88-5.76L223,78.36a4.51,4.51,0,0,0,0-1,20.61,20.61,0,0,0-41.2.8,19.56,19.56,0,0,0,1.44,7.44,21,21,0,0,0,19.2,13.2c13.92,0,19.92-11.44,20.64-13.28l-8.56-2.72C213.94,84.44,209.3,89.48,202.42,89.48Zm-10.08-14.8a10.09,10.09,0,0,1,8.8-8.08,10.63,10.63,0,0,1,10.24,5.92L192.1,76Z"/><path d="M249.7,58A15.31,15.31,0,0,0,239,62.6v-4H228.74v40H239v-22c0-5.36,3.52-9.2,8.4-9.2s8.32,3.76,8.32,9.12V98.6h10.48V76.28C266.18,65.88,259.54,58,249.7,58Z"/><path d="M290.1,89.72c-2.24,0-4.16-2-4.16-5.28V67.8h9.45V58.6h-9.45v-7l-10.21,2,0,5h-4.88v9.2h4.88V87.56c0,8.32,5.28,11.68,12.16,11.68a16.22,16.22,0,0,0,11.28-4.8l-4.39-8.16C294.75,87.56,292.82,89.72,290.1,89.72Z"/><path d="M319.23,66.84c6.72,0,11.68,4.88,11.68,4.88l6.48-5.84A24.63,24.63,0,0,0,319.47,58c-10.48,0-16.16,5-16.16,12.16,0,13.28,23.92,12.72,23.92,17,0,2-2.48,3.28-6.4,3.28-6.72,0-11.6-4.88-11.6-4.88l-6.48,5.84a24.56,24.56,0,0,0,17.84,7.92c10.48,0,16.24-5,16.24-12.16,0-13.28-24-12.72-24-17C312.83,68.12,315.39,66.84,319.23,66.84Z"/></g></g></svg>